<svg width="150" height="150" viewBox="0 0 150 150" fill="none" xmlns="http://www.w3.org/2000/svg">
<g clip-path="url(#clip0)">
<rect width="150" height="150" fill="#EBEBEB"/>
<path fill-rule="evenodd" clip-rule="evenodd" d="M117.412 33.7738C128.052 46.4713 119.582 59.2987 121.909 74.233C124.161 88.6813 136.422 104.424 130.087 115.104C124.014 125.342 116.6 140.748 104.109 141.871C92.4656 142.917 83.4636 131.811 71.0772 127.652C57.7153 123.166 36.2866 122.299 27.2511 109.807C17.9342 96.9246 25.1673 84.8808 22.8932 70.515C20.8006 57.2953 9.66176 41.4714 14.8096 31.2092C19.9579 20.946 41.3991 26.5834 51.9986 22.5054C63.7871 17.97 65.7425 11.9432 79.5722 12.9363C93.6603 13.9478 106.744 21.0423 117.412 33.7738Z" fill="url(#paint0_linear)"/>
<path d="M94.2 87.4L77 74.5V72.68C80.3 71.7 82.6 68.34 81.86 64.58C81.34 61.96 79.26 59.78 76.64 59.18C72.08 58.14 68 61.6 68 66H72C72 64.34 73.34 63 75 63C76.66 63 78 64.34 78 66C78 67.68 76.62 69.04 74.94 69C73.86 68.98 73 69.9 73 70.98V74.5L55.8 87.4C54.26 88.56 55.08 91 57 91H75H93C94.92 91 95.74 88.56 94.2 87.4ZM63 87L75 78L87 87H63Z" fill="#EBEBEB"/>
</g>
<defs>
<linearGradient id="paint0_linear" x1="120.103" y1="36.9645" x2="29.8968" y2="113.036" gradientUnits="userSpaceOnUse">
<stop stop-color="#223843"/>
<stop offset="1" stop-color="#223843" stop-opacity="0.63"/>
</linearGradient>
<clipPath id="clip0">
<rect width="150" height="150" fill="white"/>
</clipPath>
</defs>
</svg>
