<svg width="1000" height="209" viewBox="0 0 1000 209" fill="none" xmlns="http://www.w3.org/2000/svg">
<rect width="1000" height="209" fill="#223843"/>
<mask id="mask0" mask-type="alpha" maskUnits="userSpaceOnUse" x="0" y="0" width="1000" height="209">
<rect width="1000" height="209" fill="#DBD3D8"/>
</mask>
<g mask="url(#mask0)">
<path fill-rule="evenodd" clip-rule="evenodd" d="M207.587 -161.628C262.639 -166.755 305.589 -117.731 350.123 -84.9079C394.352 -52.3092 450.817 -25.2911 464.754 27.9146C478.543 80.5555 445.527 132.784 419.687 180.657C397.957 220.915 362.414 247.849 329.123 279.193C289.78 316.234 259.891 366.932 207.587 380.348C148.409 395.526 76.0908 396.517 30.4998 355.788C-14.7627 315.352 -10.7337 244.098 -12.8881 183.383C-14.5466 136.644 2.51447 93.9512 19.6651 50.4531C35.6359 9.94707 54.2284 -27.4676 83.0888 -60.0383C119.512 -101.144 152.955 -156.54 207.587 -161.628Z" fill="url(#paint0_linear)"/>
<path fill-rule="evenodd" clip-rule="evenodd" d="M794.456 -73.9103C823.729 -94.0666 862.423 -118.332 894.383 -102.784C927.012 -86.9103 921.813 -38.4831 935.961 -5.06952C946.407 19.6011 960.334 41.0993 966.36 67.2039C974.422 102.13 996.001 141.361 976.739 171.59C957.604 201.618 913.792 204.073 878.215 205.53C848.599 206.743 823.535 188.982 795.623 179.005C767.948 169.114 731.387 172.221 715.625 147.417C699.862 122.613 714.692 90.2794 720.997 61.5744C726.1 38.3455 737.189 18.5544 748.525 -2.35303C762.373 -27.8946 770.525 -57.4331 794.456 -73.9103Z" fill="url(#paint1_linear)"/>
</g>
<defs>
<linearGradient id="paint0_linear" x1="227.5" y1="-162" x2="227.5" y2="390" gradientUnits="userSpaceOnUse">
<stop stop-color="#3A6EA5"/>
<stop offset="1" stop-color="#3A6EA5" stop-opacity="0.5"/>
</linearGradient>
<linearGradient id="paint1_linear" x1="782.962" y1="-83.9444" x2="873.307" y2="217.466" gradientUnits="userSpaceOnUse">
<stop stop-color="#004E98"/>
<stop offset="1" stop-color="#004E98" stop-opacity="0"/>
</linearGradient>
</defs>
</svg>
