<svg width="642" height="535" viewBox="0 0 642 535" fill="none" xmlns="http://www.w3.org/2000/svg">
<g clip-path="url(#clip0)">
<path d="M591.29 346.4C587.99 294.55 526.58 246.84 474.7 187.78C475.62 209.99 474.1 227.96 473.07 229.78C468.95 237.15 392.79 245.35 371.7 226.18C368.4 223.18 365.4 187.92 373.18 154.8C367.5 156.87 361.18 158.56 355.57 158.64C355.44 164.12 362.57 244.08 367 264.17C364.16 269.24 335.14 274.11 315.46 274.11C295.78 274.11 266.75 269.24 263.91 264.17C268.38 244.08 275.48 164.12 275.34 158.64C260.6 158.46 241 147.1 241 147.1C241 147.1 249.18 124.19 255.12 108.82C253.403 107.735 251.987 106.236 251.002 104.461C250.016 102.685 249.493 100.691 249.48 98.66C249.548 95.3517 250.926 92.2053 253.31 89.9109C255.695 87.6164 258.891 86.3611 262.2 86.42C264.088 86.4124 265.954 86.8185 267.668 87.6098C269.382 88.401 270.901 89.5583 272.12 91C281.48 88.15 293.57 84.85 295.98 82.57C300.44 86.83 309.78 89.68 315.46 89.68C321.14 89.68 330.46 86.83 334.94 82.57C337.36 84.87 349.67 88.21 359.07 91.08C361.466 88.9169 364.582 87.7228 367.81 87.73C369.453 87.6969 371.086 87.9882 372.616 88.5873C374.146 89.1864 375.543 90.0815 376.726 91.2213C377.91 92.3612 378.857 93.7233 379.513 95.2297C380.169 96.7361 380.521 98.3572 380.55 100C380.547 102.238 379.909 104.43 378.71 106.32C379.32 107.32 380.24 108.85 381.38 110.88C383.667 109.484 386.042 108.238 388.49 107.15C388.029 106.115 387.764 105.002 387.71 103.87C387.71 97.87 391.42 85.09 394.08 75.38C369.84 39.8 346.31 11 317 2.66002C263.38 -12.66 190.79 40.34 142.18 106.9C118.68 139.08 100.85 174.44 90.93 209.54C98.11 207.38 104.93 205.19 106.67 203.54C111.14 207.8 120.47 210.64 126.15 210.64C131.83 210.64 141.15 207.8 145.63 203.54C149.49 207.19 178.31 213.48 180.74 216.32C183.17 219.16 200.63 268.07 200.63 268.07C200.63 268.07 181 279.44 166.27 279.65C166.13 285.13 173.27 365.08 177.7 385.17C175.5 389.1 157.58 392.91 140.47 394.43C168.62 420.64 204.47 442.28 241.9 459.68C285.65 480 331.65 494.56 377.41 497V492.08H395.16V497.33C416.222 497.056 437.135 493.759 457.26 487.54C528.25 465.46 595.06 403.42 591.29 346.4Z" fill="url(#paint0_linear)"/>
<path d="M508.67 201.68L459.62 242C459.341 242.233 459.14 242.546 459.045 242.897C458.949 243.247 458.965 243.619 459.088 243.961C459.211 244.303 459.437 244.599 459.735 244.808C460.032 245.017 460.386 245.129 460.75 245.13H558.83C559.197 245.138 559.557 245.031 559.861 244.825C560.165 244.619 560.397 244.324 560.526 243.98C560.654 243.636 560.673 243.261 560.578 242.906C560.484 242.552 560.282 242.235 560 242L511 201.73C510.683 201.443 510.272 201.28 509.844 201.271C509.416 201.261 509 201.407 508.67 201.68V201.68Z" stroke="black" stroke-width="2" stroke-linecap="round" stroke-linejoin="round"/>
<path d="M494.44 186.07C494.403 185.039 494.574 184.011 494.943 183.047C495.312 182.083 495.871 181.204 496.587 180.461C497.304 179.719 498.162 179.128 499.112 178.724C500.062 178.321 501.083 178.113 502.115 178.113C503.147 178.113 504.168 178.321 505.118 178.724C506.068 179.128 506.926 179.719 507.643 180.461C508.359 181.204 508.918 182.083 509.287 183.047C509.656 184.011 509.827 185.039 509.79 186.07" stroke="black" stroke-width="2" stroke-linecap="round" stroke-linejoin="round"/>
<path d="M509.79 201.28V186.07" stroke="black" stroke-width="2" stroke-linecap="round" stroke-linejoin="round"/>
<path d="M348.8 170.08C350.92 172.23 372.34 184.75 376.37 185.81C380.4 186.87 397 152.3 397 152.3L369.58 136C363 139 345.83 154.46 348.8 170.08Z" fill="#E49D75"/>
<path d="M255.25 201.68L206.25 241.95C205.966 242.179 205.76 242.492 205.661 242.843C205.562 243.195 205.575 243.569 205.698 243.913C205.821 244.257 206.048 244.554 206.348 244.763C206.647 244.973 207.005 245.083 207.37 245.08H305.45C305.813 245.077 306.166 244.963 306.462 244.754C306.757 244.544 306.982 244.248 307.104 243.906C307.226 243.565 307.24 243.194 307.145 242.844C307.049 242.494 306.849 242.182 306.57 241.95L257.57 201.68C257.247 201.403 256.836 201.25 256.41 201.25C255.984 201.25 255.573 201.403 255.25 201.68Z" stroke="black" stroke-width="2" stroke-linecap="round" stroke-linejoin="round"/>
<path d="M241 186.07C240.963 185.039 241.134 184.011 241.503 183.047C241.872 182.083 242.431 181.204 243.147 180.461C243.864 179.719 244.722 179.128 245.672 178.724C246.622 178.321 247.643 178.113 248.675 178.113C249.707 178.113 250.728 178.321 251.678 178.724C252.628 179.128 253.486 179.719 254.203 180.461C254.919 181.204 255.478 182.083 255.847 183.047C256.216 184.011 256.387 185.039 256.35 186.07" stroke="black" stroke-width="2" stroke-linecap="round" stroke-linejoin="round"/>
<path d="M256.37 201.28V186.07" stroke="black" stroke-width="2" stroke-linecap="round" stroke-linejoin="round"/>
<path d="M45.61 504.69V182.23H595.63V504.69" stroke="black" stroke-width="3" stroke-linecap="round" stroke-linejoin="round"/>
<path d="M427.11 4C443.72 4 457.16 21.78 457.16 41.9C457.16 46.66 455.85 57.16 456.58 63.77C458 76.71 475.21 96.25 475.21 110.9C475.21 137.82 438.96 139.74 427.11 139.74C415.26 139.74 388 112.81 388 103.46C388 94.11 397 68.4 397 63.31C397 58.22 409.66 4 427.11 4Z" fill="black"/>
<path d="M374.53 229.2V492.66H397.53L427 366C427 366 430.06 215 374.53 229.2Z" fill="#5FC5D1"/>
<path d="M413 107.82C424 118.82 403.68 162.12 396.25 162.94C391.25 163.5 361.19 139.58 361.15 132.94C361.1 122.3 398.34 93.25 413 107.82Z" fill="#FFC78E"/>
<path d="M469.84 231.89V492.66H444.45L394.21 234.47C394.21 229.31 465 227 469.84 231.89Z" fill="#6BD5E1"/>
<path d="M430.45 95.91C482.81 95.91 476.15 224.96 473.29 230.09C469.17 237.45 393.01 245.65 371.92 226.48C365.58 220.73 360.34 95.91 430.45 95.91Z" fill="#FFD98E"/>
<path d="M315.33 273.74C335.02 273.74 364.04 268.87 366.88 263.8C362.41 243.7 355.31 163.75 355.45 158.27C370.19 158.07 389.81 146.7 389.81 146.7C389.81 146.7 372.36 97.8 369.92 95C367.48 92.2 338.67 85.86 334.81 82.21C330.35 86.47 321.01 89.31 315.33 89.31C309.65 89.31 300.33 86.47 295.85 82.21C292 85.82 263.18 92.11 260.74 95C258.3 97.89 240.86 146.74 240.86 146.74C240.86 146.74 260.47 158.11 275.22 158.31C275.35 163.79 268.22 243.74 263.79 263.84C266.63 268.87 295.65 273.74 315.33 273.74Z" fill="#FF8555"/>
<path d="M194.79 201.68L145.79 241.95C145.506 242.179 145.3 242.492 145.201 242.843C145.102 243.195 145.115 243.569 145.238 243.913C145.361 244.257 145.588 244.554 145.888 244.763C146.187 244.973 146.545 245.083 146.91 245.08H245C245.363 245.077 245.716 244.963 246.012 244.754C246.307 244.544 246.532 244.248 246.654 243.906C246.776 243.565 246.79 243.194 246.695 242.844C246.599 242.494 246.399 242.182 246.12 241.95L197.12 201.68C196.796 201.4 196.383 201.246 195.955 201.246C195.527 201.246 195.114 201.4 194.79 201.68Z" stroke="black" stroke-width="2" stroke-linecap="round" stroke-linejoin="round"/>
<path d="M180.56 186.07C180.523 185.039 180.694 184.011 181.063 183.047C181.432 182.083 181.991 181.204 182.707 180.461C183.424 179.719 184.282 179.128 185.232 178.724C186.182 178.321 187.203 178.113 188.235 178.113C189.267 178.113 190.288 178.321 191.238 178.724C192.188 179.128 193.046 179.719 193.763 180.461C194.479 181.204 195.038 182.083 195.407 183.047C195.776 184.011 195.947 185.039 195.91 186.07" stroke="black" stroke-width="2" stroke-linecap="round" stroke-linejoin="round"/>
<path d="M195.91 201.28V186.07" stroke="black" stroke-width="2" stroke-linecap="round" stroke-linejoin="round"/>
<path d="M125.31 201.68L76.27 242C75.9855 242.229 75.7795 242.542 75.6805 242.893C75.5816 243.245 75.5945 243.619 75.7176 243.963C75.8408 244.307 76.0679 244.604 76.3676 244.813C76.6672 245.023 77.0246 245.133 77.39 245.13H175.47C175.833 245.127 176.186 245.013 176.482 244.804C176.777 244.594 177.002 244.298 177.124 243.956C177.246 243.615 177.26 243.244 177.165 242.894C177.069 242.544 176.869 242.232 176.59 242L127.59 201.73C127.276 201.456 126.876 201.301 126.459 201.292C126.042 201.283 125.636 201.42 125.31 201.68Z" stroke="black" stroke-width="2" stroke-linecap="round" stroke-linejoin="round"/>
<path d="M111.08 186.07C111.043 185.039 111.214 184.011 111.583 183.047C111.952 182.083 112.511 181.204 113.227 180.461C113.944 179.719 114.802 179.128 115.752 178.724C116.702 178.321 117.723 178.113 118.755 178.113C119.787 178.113 120.808 178.321 121.758 178.724C122.708 179.128 123.566 179.719 124.283 180.461C124.999 181.204 125.558 182.083 125.927 183.047C126.296 184.011 126.467 185.039 126.43 186.07" stroke="black" stroke-width="2" stroke-linecap="round" stroke-linejoin="round"/>
<path d="M126.43 201.28V186.07" stroke="black" stroke-width="2" stroke-linecap="round" stroke-linejoin="round"/>
<path d="M395.46 525.4H340.96V520.15L375.66 504.69H395.46V525.4Z" fill="black"/>
<path d="M437.02 525.4H476.12L468.36 507.56H444.01L437.02 525.4Z" fill="black"/>
<path d="M394.86 492.66H376.12V504.69H394.86V492.66Z" fill="#E49D75"/>
<path d="M126.43 395.16C146.11 395.16 175.13 390.29 177.97 385.22C173.51 365.13 166.41 285.17 166.54 279.69C181.29 279.49 200.9 268.13 200.9 268.13C200.9 268.13 183.45 219.22 181 216.38C178.55 213.54 149.74 207.25 145.89 203.59C141.42 207.85 132.09 210.7 126.41 210.7C120.73 210.7 111.41 207.85 106.93 203.59C103.07 207.25 74.25 213.54 71.82 216.38C69.39 219.22 52 268.13 52 268.13C52 268.13 71.61 279.49 86.36 279.69C86.5 285.17 79.36 365.13 74.93 385.22C77.72 390.29 106.74 395.16 126.43 395.16Z" fill="#3A6EA5"/>
<path d="M467.04 492.66H445.96V507.56H467.04V492.66Z" fill="#E49D75"/>
<path d="M444.3 64.13C440.76 69.52 437.92 98.06 439.42 109.22C437.34 112.12 419.12 112.58 416.22 109.69C417.72 104.77 418.82 91.4 417.9 82.69C423.68 75 444.3 64.13 444.3 64.13Z" fill="#D38D6A"/>
<path d="M82.35 516.95V504.69H8.5V516.95" stroke="black" stroke-width="3" stroke-linecap="round" stroke-linejoin="round"/>
<path d="M632.55 516.95V504.69H558.7V516.95" stroke="black" stroke-width="3" stroke-linecap="round" stroke-linejoin="round"/>
<path d="M8.5 534.5C13.1944 534.5 17 530.694 17 526C17 521.306 13.1944 517.5 8.5 517.5C3.80558 517.5 0 521.306 0 526C0 530.694 3.80558 534.5 8.5 534.5Z" fill="black"/>
<path d="M82.35 534.5C87.0444 534.5 90.85 530.694 90.85 526C90.85 521.306 87.0444 517.5 82.35 517.5C77.6556 517.5 73.85 521.306 73.85 526C73.85 530.694 77.6556 534.5 82.35 534.5Z" fill="black"/>
<path d="M558.7 534.5C563.394 534.5 567.2 530.694 567.2 526C567.2 521.306 563.394 517.5 558.7 517.5C554.006 517.5 550.2 521.306 550.2 526C550.2 530.694 554.006 534.5 558.7 534.5Z" fill="black"/>
<path d="M632.56 534.5C637.254 534.5 641.06 530.694 641.06 526C641.06 521.306 637.254 517.5 632.56 517.5C627.866 517.5 624.06 521.306 624.06 526C624.06 530.694 627.866 534.5 632.56 534.5Z" fill="black"/>
<path d="M423.61 144.7C420.85 147.15 411.06 160.25 409.16 162.54C407.03 158.91 380.28 107.13 378.16 105.24C376.04 103.35 363.79 108.71 363.32 112.24C362.85 115.77 376.57 177.3 394.8 198C397.24 200.76 409.48 201.08 412.56 200.6C415.64 200.12 451.31 168.48 453.05 165.24C454.79 162 423.61 144.7 423.61 144.7Z" fill="#E49D75"/>
<path d="M421.86 87.6901C438.716 87.6901 452.38 70.6232 452.38 49.5701C452.38 28.517 438.716 11.4501 421.86 11.4501C405.004 11.4501 391.34 28.517 391.34 49.5701C391.34 70.6232 405.004 87.6901 421.86 87.6901Z" fill="#E49D75"/>
<path d="M390.55 43.19C388 19.49 409.59 4 427.11 4C414.75 17.48 404.82 42.44 390.55 43.19Z" fill="black"/>
<path d="M407.83 17.4C405.93 20.4 417.51 51.29 440.22 51.29C480.79 50 428.7 -15.07 407.83 17.4Z" fill="black"/>
<path d="M446 60.8C450.606 60.8 454.34 57.066 454.34 52.46C454.34 47.8539 450.606 44.12 446 44.12C441.394 44.12 437.66 47.8539 437.66 52.46C437.66 57.066 441.394 60.8 446 60.8Z" fill="#E49D75"/>
<path d="M367.98 112.16C375.016 112.16 380.72 106.68 380.72 99.9201C380.72 93.1601 375.016 87.6801 367.98 87.6801C360.944 87.6801 355.24 93.1601 355.24 99.9201C355.24 106.68 360.944 112.16 367.98 112.16Z" fill="#E49D75"/>
<path d="M472.36 115C483.36 126 463.04 169.3 455.62 170.12C450.62 170.68 420.55 146.76 420.52 140.12C420.46 129.43 457.69 100.38 472.36 115Z" fill="#FFE4AD"/>
<path d="M262.48 110.95C269.516 110.95 275.22 105.47 275.22 98.71C275.22 91.95 269.516 86.47 262.48 86.47C255.444 86.47 249.74 91.95 249.74 98.71C249.74 105.47 255.444 110.95 262.48 110.95Z" fill="#E49D75"/>
</g>
<defs>
<linearGradient id="paint0_linear" x1="341.186" y1="0.000610352" x2="341.186" y2="497.33" gradientUnits="userSpaceOnUse">
<stop stop-color="#004E98"/>
<stop offset="1" stop-color="#223843" stop-opacity="0"/>
</linearGradient>
<clipPath id="clip0">
<rect width="641.06" height="534.51" fill="white"/>
</clipPath>
</defs>
</svg>
