<svg width="144" height="80" viewBox="0 0 144 80" fill="none" xmlns="http://www.w3.org/2000/svg">
<mask id="mask0" mask-type="alpha" maskUnits="userSpaceOnUse" x="0" y="-20" width="123" height="100">
<path fill-rule="evenodd" clip-rule="evenodd" d="M58.4664 -19.9997C72.3188 -19.956 75.9526 -7.58463 86.754 -0.999355C97.2038 5.37156 113.877 6.02237 117.289 15.8626C120.56 25.2954 126.412 38.3847 120.396 47.0033C114.788 55.0377 102.836 54.8047 93.5 60.5C83.4289 66.6438 71.3231 79.9198 58.4664 78.9579C45.2091 77.966 41.4093 66.812 31 60.5C21.4213 54.6916 5.30115 53.277 1.5161 44.4242C-2.26928 35.5706 12.8929 24.8671 16 15.8626C19.4557 5.84791 16.6572 1.3338 24.7472 -6.99968C32.9885 -15.4889 44.5767 -20.0435 58.4664 -19.9997Z" fill="#D77A61"/>
</mask>
<g mask="url(#mask0)">
<rect x="-19" width="163" height="64" fill="#FF8555"/>
</g>
<path d="M49.464 28.472C49.672 28.472 49.84 28.536 49.968 28.664C50.112 28.792 50.184 28.968 50.184 29.192C50.184 29.208 50.16 29.312 50.112 29.504L46.416 40.544C46.336 40.688 46.232 40.808 46.104 40.904C45.976 40.984 45.84 41.016 45.696 41C45.552 41 45.424 40.96 45.312 40.88C45.2 40.8 45.112 40.688 45.048 40.544L41.904 33.152L39.096 40.544C39.032 40.672 38.936 40.784 38.808 40.88C38.696 40.96 38.576 41 38.448 41C38.288 41.016 38.136 40.984 37.992 40.904C37.864 40.808 37.776 40.688 37.728 40.544L33.936 29.504C33.888 29.408 33.864 29.304 33.864 29.192C33.864 28.984 33.936 28.816 34.08 28.688C34.224 28.544 34.4 28.472 34.608 28.472C34.752 28.472 34.88 28.52 34.992 28.616C35.12 28.696 35.208 28.808 35.256 28.952L38.448 38.528L41.304 31.352C41.416 31.048 41.64 30.896 41.976 30.896C42.296 30.896 42.52 31.048 42.648 31.352L45.648 38.48L48.792 28.952C48.888 28.632 49.112 28.472 49.464 28.472ZM58.6789 28.448C58.9989 28.448 59.2869 28.512 59.5429 28.64C59.7989 28.768 59.9269 28.96 59.9269 29.216C59.9269 29.44 59.8629 29.624 59.7349 29.768C59.6069 29.896 59.4549 29.96 59.2789 29.96C59.1989 29.96 59.0389 29.92 58.7989 29.84C58.5749 29.76 58.3589 29.72 58.1509 29.72C57.5589 29.72 56.9669 29.952 56.3749 30.416C55.7989 30.864 55.3189 31.448 54.9349 32.168C54.5669 32.888 54.3829 33.616 54.3829 34.352V40.28C54.3829 40.488 54.3109 40.664 54.1669 40.808C54.0389 40.936 53.8709 41 53.6629 41C53.4549 41 53.2789 40.936 53.1349 40.808C53.0069 40.664 52.9429 40.488 52.9429 40.28V29.528C52.9429 29.32 53.0069 29.152 53.1349 29.024C53.2789 28.88 53.4549 28.808 53.6629 28.808C53.8709 28.808 54.0389 28.88 54.1669 29.024C54.3109 29.152 54.3829 29.32 54.3829 29.528V31.64C54.7509 30.728 55.3029 29.976 56.0389 29.384C56.7909 28.776 57.6709 28.464 58.6789 28.448ZM71.5982 23.24C71.8062 23.24 71.9742 23.312 72.1022 23.456C72.2462 23.584 72.3182 23.752 72.3182 23.96V40.28C72.3182 40.488 72.2462 40.664 72.1022 40.808C71.9742 40.936 71.8062 41 71.5982 41C71.3902 41 71.2142 40.936 71.0702 40.808C70.9422 40.664 70.8782 40.488 70.8782 40.28V38.6C70.4782 39.336 69.8782 39.96 69.0782 40.472C68.2942 40.984 67.4222 41.24 66.4622 41.24C65.4062 41.24 64.4462 40.968 63.5822 40.424C62.7342 39.864 62.0622 39.096 61.5662 38.12C61.0702 37.144 60.8222 36.048 60.8222 34.832C60.8222 33.632 61.0702 32.544 61.5662 31.568C62.0622 30.592 62.7342 29.832 63.5822 29.288C64.4462 28.728 65.3982 28.448 66.4382 28.448C67.3822 28.448 68.2542 28.688 69.0542 29.168C69.8542 29.632 70.4622 30.24 70.8782 30.992V23.96C70.8782 23.752 70.9422 23.584 71.0702 23.456C71.2142 23.312 71.3902 23.24 71.5982 23.24ZM66.6062 39.896C67.4382 39.896 68.1822 39.68 68.8382 39.248C69.5102 38.816 70.0302 38.216 70.3982 37.448C70.7822 36.664 70.9742 35.792 70.9742 34.832C70.9742 33.888 70.7822 33.032 70.3982 32.264C70.0302 31.496 69.5102 30.896 68.8382 30.464C68.1822 30.016 67.4382 29.792 66.6062 29.792C65.7742 29.792 65.0222 30.016 64.3502 30.464C63.6942 30.896 63.1742 31.496 62.7902 32.264C62.4222 33.032 62.2382 33.888 62.2382 34.832C62.2382 35.792 62.4222 36.656 62.7902 37.424C63.1742 38.192 63.6942 38.8 64.3502 39.248C65.0222 39.68 65.7742 39.896 66.6062 39.896ZM81.8117 28.448C82.1317 28.448 82.4197 28.512 82.6757 28.64C82.9317 28.768 83.0597 28.96 83.0597 29.216C83.0597 29.44 82.9957 29.624 82.8677 29.768C82.7397 29.896 82.5877 29.96 82.4117 29.96C82.3317 29.96 82.1717 29.92 81.9317 29.84C81.7077 29.76 81.4917 29.72 81.2837 29.72C80.6917 29.72 80.0997 29.952 79.5077 30.416C78.9317 30.864 78.4517 31.448 78.0677 32.168C77.6997 32.888 77.5157 33.616 77.5157 34.352V40.28C77.5157 40.488 77.4437 40.664 77.2997 40.808C77.1717 40.936 77.0037 41 76.7957 41C76.5877 41 76.4117 40.936 76.2677 40.808C76.1397 40.664 76.0757 40.488 76.0757 40.28V29.528C76.0757 29.32 76.1397 29.152 76.2677 29.024C76.4117 28.88 76.5877 28.808 76.7957 28.808C77.0037 28.808 77.1717 28.88 77.2997 29.024C77.4437 29.152 77.5157 29.32 77.5157 29.528V31.64C77.8837 30.728 78.4357 29.976 79.1717 29.384C79.9237 28.776 80.8037 28.464 81.8117 28.448ZM91.1421 28.448C92.1981 28.448 93.1581 28.72 94.0221 29.264C94.8861 29.808 95.5581 30.568 96.0381 31.544C96.5341 32.504 96.7821 33.592 96.7821 34.808C96.7821 36.008 96.5341 37.104 96.0381 38.096C95.5581 39.072 94.8861 39.84 94.0221 40.4C93.1741 40.96 92.2221 41.24 91.1661 41.24C90.2541 41.24 89.4061 41.016 88.6221 40.568C87.8541 40.104 87.2301 39.496 86.7501 38.744V40.328C86.7501 40.536 86.6781 40.712 86.5341 40.856C86.4061 41 86.2381 41.072 86.0301 41.072C85.8221 41.072 85.6461 41 85.5021 40.856C85.3741 40.712 85.3101 40.536 85.3101 40.328V23.984C85.3101 23.776 85.3741 23.608 85.5021 23.48C85.6461 23.336 85.8221 23.264 86.0301 23.264C86.2381 23.264 86.4061 23.336 86.5341 23.48C86.6781 23.608 86.7501 23.776 86.7501 23.984V31.064C87.1821 30.28 87.7901 29.648 88.5741 29.168C89.3581 28.688 90.2141 28.448 91.1421 28.448ZM91.0221 39.896C91.8541 39.896 92.5981 39.672 93.2541 39.224C93.9261 38.776 94.4461 38.168 94.8141 37.4C95.1981 36.616 95.3901 35.752 95.3901 34.808C95.3901 33.848 95.1981 32.992 94.8141 32.24C94.4461 31.472 93.9261 30.872 93.2541 30.44C92.5981 30.008 91.8541 29.792 91.0221 29.792C90.1741 29.792 89.4141 30.008 88.7421 30.44C88.0701 30.856 87.5501 31.448 87.1821 32.216C86.8141 32.984 86.6301 33.848 86.6301 34.808C86.6301 35.768 86.8141 36.64 87.1821 37.424C87.5661 38.192 88.0861 38.8 88.7421 39.248C89.4141 39.68 90.1741 39.896 91.0221 39.896Z" fill="white"/>
</svg>
