<svg width="144" height="100" viewBox="0 0 144 100" fill="none" xmlns="http://www.w3.org/2000/svg">
<path fill-rule="evenodd" clip-rule="evenodd" d="M57.5529 0.000312925C71.4054 0.0439924 75.0391 12.4154 85.8406 19.0006C96.2904 25.3716 112.964 26.0224 116.376 35.8626C119.646 45.2954 125.499 58.3847 119.483 67.0033C113.874 75.0377 101.922 74.8047 92.5865 80.5C82.5155 86.6438 70.4097 99.9198 57.5529 98.9579C44.2956 97.966 40.4958 86.812 30.0865 80.5C20.5078 74.6916 4.38769 73.277 0.602645 64.4242C-3.18273 55.5706 11.9794 44.8671 15.0865 35.8626C18.5422 25.8479 15.7437 21.3338 23.8338 13.0003C32.0751 4.51111 43.6632 -0.0434839 57.5529 0.000312925Z" fill="#FF8555"/>
<path d="M48.5505 48.472C48.7585 48.472 48.9265 48.536 49.0545 48.664C49.1985 48.792 49.2705 48.968 49.2705 49.192C49.2705 49.208 49.2465 49.312 49.1985 49.504L45.5025 60.544C45.4225 60.688 45.3185 60.808 45.1905 60.904C45.0625 60.984 44.9265 61.016 44.7825 61C44.6385 61 44.5105 60.96 44.3985 60.88C44.2865 60.8 44.1985 60.688 44.1345 60.544L40.9905 53.152L38.1825 60.544C38.1185 60.672 38.0225 60.784 37.8945 60.88C37.7825 60.96 37.6625 61 37.5345 61C37.3745 61.016 37.2225 60.984 37.0785 60.904C36.9505 60.808 36.8625 60.688 36.8145 60.544L33.0225 49.504C32.9745 49.408 32.9505 49.304 32.9505 49.192C32.9505 48.984 33.0225 48.816 33.1665 48.688C33.3105 48.544 33.4865 48.472 33.6945 48.472C33.8385 48.472 33.9665 48.52 34.0785 48.616C34.2065 48.696 34.2945 48.808 34.3425 48.952L37.5345 58.528L40.3905 51.352C40.5025 51.048 40.7265 50.896 41.0625 50.896C41.3825 50.896 41.6065 51.048 41.7345 51.352L44.7345 58.48L47.8785 48.952C47.9745 48.632 48.1985 48.472 48.5505 48.472ZM57.7654 48.448C58.0854 48.448 58.3734 48.512 58.6294 48.64C58.8854 48.768 59.0134 48.96 59.0134 49.216C59.0134 49.44 58.9494 49.624 58.8214 49.768C58.6934 49.896 58.5414 49.96 58.3654 49.96C58.2854 49.96 58.1254 49.92 57.8854 49.84C57.6614 49.76 57.4454 49.72 57.2374 49.72C56.6454 49.72 56.0534 49.952 55.4614 50.416C54.8854 50.864 54.4054 51.448 54.0214 52.168C53.6534 52.888 53.4694 53.616 53.4694 54.352V60.28C53.4694 60.488 53.3974 60.664 53.2534 60.808C53.1254 60.936 52.9574 61 52.7494 61C52.5414 61 52.3654 60.936 52.2214 60.808C52.0934 60.664 52.0294 60.488 52.0294 60.28V49.528C52.0294 49.32 52.0934 49.152 52.2214 49.024C52.3654 48.88 52.5414 48.808 52.7494 48.808C52.9574 48.808 53.1254 48.88 53.2534 49.024C53.3974 49.152 53.4694 49.32 53.4694 49.528V51.64C53.8374 50.728 54.3894 49.976 55.1254 49.384C55.8774 48.776 56.7574 48.464 57.7654 48.448ZM70.6847 43.24C70.8927 43.24 71.0607 43.312 71.1887 43.456C71.3327 43.584 71.4047 43.752 71.4047 43.96V60.28C71.4047 60.488 71.3327 60.664 71.1887 60.808C71.0607 60.936 70.8927 61 70.6847 61C70.4767 61 70.3007 60.936 70.1567 60.808C70.0287 60.664 69.9647 60.488 69.9647 60.28V58.6C69.5647 59.336 68.9647 59.96 68.1647 60.472C67.3807 60.984 66.5087 61.24 65.5487 61.24C64.4927 61.24 63.5327 60.968 62.6687 60.424C61.8207 59.864 61.1487 59.096 60.6527 58.12C60.1567 57.144 59.9087 56.048 59.9087 54.832C59.9087 53.632 60.1567 52.544 60.6527 51.568C61.1487 50.592 61.8207 49.832 62.6687 49.288C63.5327 48.728 64.4847 48.448 65.5247 48.448C66.4687 48.448 67.3407 48.688 68.1407 49.168C68.9407 49.632 69.5487 50.24 69.9647 50.992V43.96C69.9647 43.752 70.0287 43.584 70.1567 43.456C70.3007 43.312 70.4767 43.24 70.6847 43.24ZM65.6927 59.896C66.5247 59.896 67.2687 59.68 67.9247 59.248C68.5967 58.816 69.1167 58.216 69.4847 57.448C69.8687 56.664 70.0607 55.792 70.0607 54.832C70.0607 53.888 69.8687 53.032 69.4847 52.264C69.1167 51.496 68.5967 50.896 67.9247 50.464C67.2687 50.016 66.5247 49.792 65.6927 49.792C64.8607 49.792 64.1087 50.016 63.4367 50.464C62.7807 50.896 62.2607 51.496 61.8767 52.264C61.5087 53.032 61.3247 53.888 61.3247 54.832C61.3247 55.792 61.5087 56.656 61.8767 57.424C62.2607 58.192 62.7807 58.8 63.4367 59.248C64.1087 59.68 64.8607 59.896 65.6927 59.896ZM80.8982 48.448C81.2182 48.448 81.5062 48.512 81.7622 48.64C82.0182 48.768 82.1462 48.96 82.1462 49.216C82.1462 49.44 82.0822 49.624 81.9542 49.768C81.8262 49.896 81.6742 49.96 81.4982 49.96C81.4182 49.96 81.2582 49.92 81.0182 49.84C80.7942 49.76 80.5782 49.72 80.3702 49.72C79.7782 49.72 79.1862 49.952 78.5942 50.416C78.0182 50.864 77.5382 51.448 77.1542 52.168C76.7862 52.888 76.6022 53.616 76.6022 54.352V60.28C76.6022 60.488 76.5302 60.664 76.3862 60.808C76.2582 60.936 76.0902 61 75.8822 61C75.6742 61 75.4982 60.936 75.3542 60.808C75.2262 60.664 75.1622 60.488 75.1622 60.28V49.528C75.1622 49.32 75.2262 49.152 75.3542 49.024C75.4982 48.88 75.6742 48.808 75.8822 48.808C76.0902 48.808 76.2582 48.88 76.3862 49.024C76.5302 49.152 76.6022 49.32 76.6022 49.528V51.64C76.9702 50.728 77.5222 49.976 78.2582 49.384C79.0102 48.776 79.8902 48.464 80.8982 48.448ZM90.2286 48.448C91.2846 48.448 92.2446 48.72 93.1086 49.264C93.9726 49.808 94.6446 50.568 95.1246 51.544C95.6206 52.504 95.8686 53.592 95.8686 54.808C95.8686 56.008 95.6206 57.104 95.1246 58.096C94.6446 59.072 93.9726 59.84 93.1086 60.4C92.2606 60.96 91.3086 61.24 90.2526 61.24C89.3406 61.24 88.4926 61.016 87.7086 60.568C86.9406 60.104 86.3166 59.496 85.8366 58.744V60.328C85.8366 60.536 85.7646 60.712 85.6206 60.856C85.4926 61 85.3246 61.072 85.1166 61.072C84.9086 61.072 84.7326 61 84.5886 60.856C84.4606 60.712 84.3966 60.536 84.3966 60.328V43.984C84.3966 43.776 84.4606 43.608 84.5886 43.48C84.7326 43.336 84.9086 43.264 85.1166 43.264C85.3246 43.264 85.4926 43.336 85.6206 43.48C85.7646 43.608 85.8366 43.776 85.8366 43.984V51.064C86.2686 50.28 86.8766 49.648 87.6606 49.168C88.4446 48.688 89.3006 48.448 90.2286 48.448ZM90.1086 59.896C90.9406 59.896 91.6846 59.672 92.3406 59.224C93.0126 58.776 93.5326 58.168 93.9006 57.4C94.2846 56.616 94.4766 55.752 94.4766 54.808C94.4766 53.848 94.2846 52.992 93.9006 52.24C93.5326 51.472 93.0126 50.872 92.3406 50.44C91.6846 50.008 90.9406 49.792 90.1086 49.792C89.2606 49.792 88.5006 50.008 87.8286 50.44C87.1566 50.856 86.6366 51.448 86.2686 52.216C85.9006 52.984 85.7166 53.848 85.7166 54.808C85.7166 55.768 85.9006 56.64 86.2686 57.424C86.6526 58.192 87.1726 58.8 87.8286 59.248C88.5006 59.68 89.2606 59.896 90.1086 59.896Z" fill="white"/>
</svg>
